<svg width="34" height="34" viewBox="0 0 34 34" fill="none" xmlns="http://www.w3.org/2000/svg">
<path d="M24.0833 0H9.91665C8.03872 0.00224946 6.23835 0.749249 4.91046 2.07714C3.58256 3.40504 2.83556 5.20541 2.83331 7.08333V28.3333C2.83331 29.8362 3.43034 31.2776 4.49304 32.3403C5.55575 33.403 6.99709 34 8.49998 34H24.0833C25.9612 33.9977 27.7616 33.2508 29.0895 31.9229C30.4174 30.595 31.1644 28.7946 31.1666 26.9167V7.08333C31.1644 5.20541 30.4174 3.40504 29.0895 2.07714C27.7616 0.749249 25.9612 0.00224946 24.0833 0V0ZM28.3333 7.08333V22.6667H11.3333V2.83333H24.0833C25.2105 2.83333 26.2915 3.2811 27.0885 4.07813C27.8855 4.87516 28.3333 5.95616 28.3333 7.08333ZM8.49998 3.077V22.6667C7.50495 22.6658 6.52742 22.9283 5.66665 23.4274V7.08333C5.66677 6.20456 5.9393 5.34743 6.44671 4.62995C6.95412 3.91247 7.67146 3.36992 8.49998 3.077ZM24.0833 31.1667H8.49998C7.74853 31.1667 7.02786 30.8682 6.49651 30.3368C5.96516 29.8054 5.66665 29.0848 5.66665 28.3333C5.66665 27.5819 5.96516 26.8612 6.49651 26.3299C7.02786 25.7985 7.74853 25.5 8.49998 25.5H28.3333V26.9167C28.3333 28.0438 27.8855 29.1248 27.0885 29.9219C26.2915 30.7189 25.2105 31.1667 24.0833 31.1667Z" fill="#6CA4F4"/>
</svg>
