<svg width="34" height="33" viewBox="0 0 34 33" fill="none" xmlns="http://www.w3.org/2000/svg">
<g clip-path="url(#clip0)">
<path d="M26.9167 2.75H25.5V1.375C25.5 1.01033 25.3507 0.660591 25.0851 0.402728C24.8194 0.144866 24.4591 0 24.0833 0C23.7076 0 23.3473 0.144866 23.0816 0.402728C22.8159 0.660591 22.6667 1.01033 22.6667 1.375V2.75H11.3333V1.375C11.3333 1.01033 11.1841 0.660591 10.9184 0.402728C10.6527 0.144866 10.2924 0 9.91667 0C9.54094 0 9.18061 0.144866 8.91493 0.402728C8.64926 0.660591 8.5 1.01033 8.5 1.375V2.75H7.08333C5.20541 2.75218 3.40504 3.47721 2.07714 4.76605C0.749249 6.05489 0.00224946 7.80231 0 9.625L0 26.125C0.00224946 27.9477 0.749249 29.6951 2.07714 30.9839C3.40504 32.2728 5.20541 32.9978 7.08333 33H26.9167C28.7946 32.9978 30.595 32.2728 31.9229 30.9839C33.2508 29.6951 33.9977 27.9477 34 26.125V9.625C33.9977 7.80231 33.2508 6.05489 31.9229 4.76605C30.595 3.47721 28.7946 2.75218 26.9167 2.75ZM2.83333 9.625C2.83333 8.53098 3.2811 7.48177 4.07813 6.70818C4.87516 5.9346 5.95616 5.5 7.08333 5.5H26.9167C28.0438 5.5 29.1248 5.9346 29.9219 6.70818C30.7189 7.48177 31.1667 8.53098 31.1667 9.625V11H2.83333V9.625ZM26.9167 30.25H7.08333C5.95616 30.25 4.87516 29.8154 4.07813 29.0418C3.2811 28.2682 2.83333 27.219 2.83333 26.125V13.75H31.1667V26.125C31.1667 27.219 30.7189 28.2682 29.9219 29.0418C29.1248 29.8154 28.0438 30.25 26.9167 30.25Z" fill="#6CA4F4"/>
<path d="M17 22.6875C18.1736 22.6875 19.125 21.7641 19.125 20.625C19.125 19.4859 18.1736 18.5625 17 18.5625C15.8264 18.5625 14.875 19.4859 14.875 20.625C14.875 21.7641 15.8264 22.6875 17 22.6875Z" fill="#6CA4F4"/>
<path d="M9.91669 22.6875C11.0903 22.6875 12.0417 21.7641 12.0417 20.625C12.0417 19.4859 11.0903 18.5625 9.91669 18.5625C8.74308 18.5625 7.79169 19.4859 7.79169 20.625C7.79169 21.7641 8.74308 22.6875 9.91669 22.6875Z" fill="#6CA4F4"/>
<path d="M24.0833 22.6875C25.2569 22.6875 26.2083 21.7641 26.2083 20.625C26.2083 19.4859 25.2569 18.5625 24.0833 18.5625C22.9097 18.5625 21.9583 19.4859 21.9583 20.625C21.9583 21.7641 22.9097 22.6875 24.0833 22.6875Z" fill="#6CA4F4"/>
</g>
<defs>
<clipPath id="clip0">
<rect width="34" height="33" fill="white"/>
</clipPath>
</defs>
</svg>
