<svg width="34" height="33" viewBox="0 0 34 33" fill="none" xmlns="http://www.w3.org/2000/svg">
<path d="M26.9167 4.12501H17.6687C17.4496 4.12641 17.233 4.07939 17.0354 3.98751L12.5644 1.80951C11.9742 1.52426 11.324 1.37554 10.6647 1.37501H7.08333C5.20541 1.37719 3.40504 2.10222 2.07714 3.39106C0.749249 4.6799 0.00224946 6.42731 0 8.25001L0 24.75C0.00224946 26.5727 0.749249 28.3201 2.07714 29.609C3.40504 30.8978 5.20541 31.6228 7.08333 31.625H26.9167C28.7946 31.6228 30.595 30.8978 31.9229 29.609C33.2508 28.3201 33.9977 26.5727 34 24.75V11C33.9977 9.17731 33.2508 7.4299 31.9229 6.14106C30.595 4.85222 28.7946 4.12719 26.9167 4.12501ZM7.08333 4.12501H10.6647C10.8838 4.1236 11.1003 4.17062 11.2979 4.26251L15.7689 6.43363C16.3585 6.72126 17.0088 6.87234 17.6687 6.87501H26.9167C27.7639 6.87635 28.5914 7.12343 29.2929 7.58452C29.9944 8.04562 30.5379 8.69969 30.8536 9.46276L2.83333 9.61676V8.25001C2.83333 7.15599 3.2811 6.10678 4.07813 5.33319C4.87516 4.5596 5.95616 4.12501 7.08333 4.12501ZM26.9167 28.875H7.08333C5.95616 28.875 4.87516 28.4404 4.07813 27.6668C3.2811 26.8932 2.83333 25.844 2.83333 24.75V12.3668L31.1667 12.2114V24.75C31.1667 25.844 30.7189 26.8932 29.9219 27.6668C29.1248 28.4404 28.0438 28.875 26.9167 28.875Z" fill="#6CA4F4"/>
</svg>
