<svg width="34" height="34" viewBox="0 0 34 34" fill="none" xmlns="http://www.w3.org/2000/svg">
<path d="M32.3952 12.6148L21.8463 2.0645C20.5407 0.762741 18.7723 0.0317383 16.9286 0.0317383C15.0849 0.0317383 13.3165 0.762741 12.0109 2.0645L1.46199 12.6148C1.07317 13.0011 0.764904 13.4608 0.555057 13.9671C0.345209 14.4735 0.237958 15.0165 0.239519 15.5646V29.2176C0.239519 30.3242 0.679096 31.3854 1.46155 32.1679C2.244 32.9503 3.30523 33.3899 4.41178 33.3899H29.4454C30.5519 33.3899 31.6132 32.9503 32.3956 32.1679C33.1781 31.3854 33.6176 30.3242 33.6176 29.2176V15.5646C33.6192 15.0165 33.512 14.4735 33.3021 13.9671C33.0923 13.4608 32.784 13.0011 32.3952 12.6148ZM21.1008 30.6084H12.7563V25.1371C12.7563 24.0306 13.1959 22.9693 13.9783 22.1869C14.7608 21.4044 15.822 20.9649 16.9286 20.9649C18.0351 20.9649 19.0964 21.4044 19.8788 22.1869C20.6613 22.9693 21.1008 24.0306 21.1008 25.1371V30.6084ZM30.8361 29.2176C30.8361 29.5865 30.6896 29.9402 30.4288 30.201C30.168 30.4618 29.8142 30.6084 29.4454 30.6084H23.8824V25.1371C23.8824 23.2929 23.1497 21.5242 21.8456 20.2201C20.5416 18.916 18.7728 18.1834 16.9286 18.1834C15.0843 18.1834 13.3156 18.916 12.0115 20.2201C10.7074 21.5242 9.97481 23.2929 9.97481 25.1371V30.6084H4.41178C4.04293 30.6084 3.68919 30.4618 3.42837 30.201C3.16756 29.9402 3.02103 29.5865 3.02103 29.2176V15.5646C3.02232 15.196 3.16871 14.8427 3.42852 14.5813L13.9774 4.0352C14.7614 3.25489 15.8225 2.81682 16.9286 2.81682C18.0347 2.81682 19.0958 3.25489 19.8798 4.0352L30.4286 14.5855C30.6874 14.8459 30.8338 15.1974 30.8361 15.5646V29.2176Z" fill="#6CA4F4"/>
</svg>
