<svg width="34" height="37" viewBox="0 0 34 37" fill="none" xmlns="http://www.w3.org/2000/svg">
<path d="M0.5 35.2653C0.5 36.0937 1.17157 36.7653 2 36.7653C2.82843 36.7653 3.5 36.0937 3.5 35.2653H0.5ZM30.5 35.2653C30.5 36.0937 31.1716 36.7653 32 36.7653C32.8284 36.7653 33.5 36.0937 33.5 35.2653H30.5ZM3.5 35.2653C3.5 29.6838 5.26406 25.6407 7.77396 23.0041C10.2926 20.3582 13.6448 19.038 17 19.038C20.3552 19.038 23.7074 20.3582 26.226 23.0041C28.7359 25.6407 30.5 29.6838 30.5 35.2653H33.5C33.5 29.0286 31.5141 24.2081 28.399 20.9356C25.2926 17.6724 21.1448 16.038 17 16.038C12.8552 16.038 8.7074 17.6724 5.60104 20.9356C2.48594 24.2081 0.5 29.0286 0.5 35.2653H3.5ZM1 36.788H31V33.788H1V36.788Z" fill="#6CA4F4"/>
<circle cx="17" cy="9.78802" r="7.5" stroke="#6CA4F4" stroke-width="3"/>
</svg>
