<svg width="33" height="34" viewBox="0 0 33 34" fill="none" xmlns="http://www.w3.org/2000/svg">
<path d="M6.5 6.78802C6.5 4.30274 8.51472 2.28802 11 2.28802H27C29.4853 2.28802 31.5 4.30274 31.5 6.78802V27.788C31.5 30.2733 29.4853 32.288 27 32.288H6.5V6.78802Z" stroke="#6CA4F4" stroke-width="3"/>
<mask id="path-2-inside-1_109:51" fill="white">
<path d="M0 16.788C0 15.6835 0.895431 14.788 2 14.788H6C7.10457 14.788 8 15.6835 8 16.788V33.788H5C2.23858 33.788 0 31.5494 0 28.788V16.788Z"/>
</mask>
<path d="M0 16.788C0 15.6835 0.895431 14.788 2 14.788H6C7.10457 14.788 8 15.6835 8 16.788V33.788H5C2.23858 33.788 0 31.5494 0 28.788V16.788Z" stroke="#6CA4F4" stroke-width="6" mask="url(#path-2-inside-1_109:51)"/>
<line x1="14.5" y1="9.28802" x2="24.5" y2="9.28802" stroke="#6CA4F4" stroke-width="3" stroke-linecap="round"/>
<line x1="14.5" y1="17.288" x2="24.5" y2="17.288" stroke="#6CA4F4" stroke-width="3" stroke-linecap="round"/>
<line x1="14.5" y1="25.288" x2="24.5" y2="25.288" stroke="#6CA4F4" stroke-width="3" stroke-linecap="round"/>
</svg>
