<svg width="26" height="26" viewBox="0 0 26 26" fill="none" xmlns="http://www.w3.org/2000/svg">
<path d="M19.3516 9.67578C19.3516 15.0196 15.0196 19.3516 9.67578 19.3516C4.33199 19.3516 0 15.0196 0 9.67578C0 4.33199 4.33199 0 9.67578 0C15.0196 0 19.3516 4.33199 19.3516 9.67578ZM2.41894 9.67578C2.41894 13.6836 5.66794 16.9326 9.67578 16.9326C13.6836 16.9326 16.9326 13.6836 16.9326 9.67578C16.9326 5.66794 13.6836 2.41894 9.67578 2.41894C5.66794 2.41894 2.41894 5.66794 2.41894 9.67578Z" fill="#6CA4F4"/>
<rect x="14.0132" y="15.9006" width="2.66918" height="12.8787" rx="1.33459" transform="rotate(-45 14.0132 15.9006)" fill="#6CA4F4"/>
</svg>
