<svg width="34" height="34" viewBox="0 0 34 34" fill="none" xmlns="http://www.w3.org/2000/svg">
<g clip-path="url(#clip0_2:144)">
<path d="M17 11.538C15.8792 11.538 14.7836 11.8606 13.8518 12.4649C12.9199 13.0693 12.1936 13.9283 11.7647 14.9333C11.3358 15.9383 11.2235 17.0441 11.4422 18.111C11.6608 19.1779 12.2005 20.1579 12.993 20.9271C13.7855 21.6963 14.7952 22.2201 15.8945 22.4323C16.9937 22.6446 18.1331 22.5356 19.1685 22.1194C20.204 21.7031 21.089 20.9981 21.7116 20.0937C22.3343 19.1892 22.6666 18.1258 22.6666 17.038C22.6666 15.5793 22.0696 14.1804 21.0069 13.1489C19.9442 12.1175 18.5029 11.538 17 11.538ZM17 19.788C16.4396 19.788 15.8918 19.6267 15.4259 19.3246C14.9599 19.0224 14.5968 18.5929 14.3823 18.0904C14.1679 17.5879 14.1118 17.035 14.2211 16.5015C14.3304 15.9681 14.6003 15.4781 14.9965 15.0935C15.3928 14.7089 15.8976 14.447 16.4472 14.3409C16.9968 14.2348 17.5665 14.2892 18.0843 14.4974C18.602 14.7055 19.0445 15.058 19.3558 15.5102C19.6671 15.9624 19.8333 16.4941 19.8333 17.038C19.8333 17.7674 19.5348 18.4668 19.0035 18.9826C18.4721 19.4983 17.7514 19.788 17 19.788Z" fill="#6CA4F4"/>
<path d="M30.1665 19.6505L29.5375 19.2985C29.8207 17.8031 29.8207 16.2702 29.5375 14.7748L30.1665 14.4228C30.6502 14.1519 31.0742 13.7913 31.4143 13.3614C31.7544 12.9315 32.0039 12.4408 32.1486 11.9173C32.2933 11.3938 32.3304 10.8478 32.2577 10.3104C32.1849 9.77298 32.0039 9.25475 31.7248 8.78528C31.4458 8.3158 31.0742 7.90427 30.6313 7.57418C30.1883 7.24409 29.6828 7.00191 29.1434 6.86146C28.6041 6.72101 28.0415 6.68505 27.4878 6.75562C26.9341 6.82619 26.4002 7.00192 25.9165 7.27277L25.2861 7.62615C24.0954 6.63879 22.7271 5.87337 21.25 5.3684V4.66302C21.25 3.56901 20.8022 2.5198 20.0052 1.74621C19.2082 0.972622 18.1272 0.538025 17 0.538025C15.8728 0.538025 14.7918 0.972622 13.9948 1.74621C13.1978 2.5198 12.75 3.56901 12.75 4.66302V5.3684C11.273 5.87518 9.90512 6.64247 8.71533 7.63165L8.08208 7.27553C7.1052 6.72852 5.94445 6.58056 4.85518 6.86421C3.7659 7.14786 2.83733 7.83988 2.27375 8.78802C1.71016 9.73617 1.55773 10.8628 1.84997 11.92C2.14222 12.9773 2.8552 13.8785 3.83208 14.4255L4.46108 14.7775C4.17791 16.2729 4.17791 17.8059 4.46108 19.3013L3.83208 19.6533C2.8552 20.2003 2.14222 21.1015 1.84997 22.1588C1.55773 23.216 1.71016 24.3426 2.27375 25.2908C2.83733 26.2389 3.7659 26.9309 4.85518 27.2146C5.94445 27.4982 7.1052 27.3503 8.08208 26.8033L8.7125 26.4499C9.90358 27.4374 11.2724 28.2028 12.75 28.7076V29.413C12.75 30.507 13.1978 31.5563 13.9948 32.3298C14.7918 33.1034 15.8728 33.538 17 33.538C18.1272 33.538 19.2082 33.1034 20.0052 32.3298C20.8022 31.5563 21.25 30.507 21.25 29.413V28.7076C22.727 28.2009 24.0949 27.4336 25.2847 26.4444L25.9179 26.7992C26.8948 27.3462 28.0556 27.4941 29.1448 27.2105C30.2341 26.9268 31.1627 26.2348 31.7263 25.2867C32.2898 24.3385 32.4423 23.2119 32.15 22.1547C31.8578 21.0974 31.1448 20.1962 30.1679 19.6492L30.1665 19.6505ZM26.5568 14.4585C27.0366 16.1457 27.0366 17.9276 26.5568 19.6148C26.4731 19.9084 26.4922 20.2208 26.6112 20.5028C26.7301 20.7847 26.9422 21.0204 27.2142 21.1726L28.7498 22.0334C29.0754 22.2157 29.313 22.5161 29.4104 22.8685C29.5077 23.2209 29.4569 23.5963 29.269 23.9123C29.0812 24.2283 28.7717 24.4589 28.4086 24.5534C28.0456 24.648 27.6587 24.5986 27.3332 24.4163L25.7947 23.5528C25.5225 23.3998 25.2057 23.339 24.894 23.3801C24.5824 23.4212 24.2937 23.5618 24.0734 23.7796C22.8125 25.0291 21.2239 25.9205 19.4792 26.3578C19.1746 26.4338 18.9048 26.6059 18.7122 26.8472C18.5196 27.0884 18.4151 27.385 18.4153 27.6901V29.413C18.4153 29.7777 18.266 30.1274 18.0003 30.3853C17.7346 30.6432 17.3743 30.788 16.9986 30.788C16.6229 30.788 16.2625 30.6432 15.9968 30.3853C15.7312 30.1274 15.5819 29.7777 15.5819 29.413V27.6915C15.5821 27.3863 15.4776 27.0898 15.285 26.8485C15.0924 26.6073 14.8225 26.4351 14.518 26.3591C12.7732 25.9201 11.1851 25.0267 9.92517 23.7755C9.70491 23.5576 9.41621 23.4171 9.10457 23.376C8.79293 23.3349 8.47607 23.3957 8.20392 23.5487L6.66825 24.4108C6.50707 24.5025 6.3288 24.5623 6.14369 24.5869C5.95859 24.6115 5.7703 24.6003 5.58968 24.5539C5.40905 24.5076 5.23966 24.427 5.09125 24.3168C4.94283 24.2067 4.81834 24.0691 4.72492 23.9121C4.6315 23.7551 4.57101 23.5816 4.54693 23.4018C4.52285 23.222 4.53565 23.0393 4.5846 22.8643C4.63355 22.6893 4.71769 22.5254 4.83215 22.3821C4.94662 22.2388 5.08917 22.1189 5.25158 22.0293L6.78725 21.1685C7.05918 21.0162 7.27129 20.7806 7.39027 20.4986C7.50925 20.2167 7.52835 19.9043 7.44458 19.6107C6.96484 17.9234 6.96484 16.1416 7.44458 14.4544C7.52684 14.1614 7.50683 13.8501 7.38765 13.5693C7.26848 13.2885 7.05686 13.0538 6.78583 12.902L5.25017 12.0413C4.9246 11.8589 4.687 11.5585 4.58963 11.2062C4.49226 10.8538 4.5431 10.4783 4.73096 10.1623C4.91882 9.84635 5.22832 9.61573 5.59136 9.52123C5.95441 9.42672 6.34127 9.47606 6.66683 9.6584L8.20533 10.5219C8.47674 10.6752 8.79294 10.7367 9.10425 10.6966C9.41556 10.6565 9.70432 10.5172 9.92517 10.3005C11.1861 9.05112 12.7747 8.15968 14.5194 7.7224C14.8249 7.64617 15.0954 7.47318 15.2881 7.23084C15.4809 6.98849 15.5848 6.69066 15.5833 6.38452V4.66302C15.5833 4.29835 15.7326 3.94862 15.9983 3.69075C16.2639 3.43289 16.6243 3.28802 17 3.28802C17.3757 3.28802 17.7361 3.43289 18.0017 3.69075C18.2674 3.94862 18.4167 4.29835 18.4167 4.66302V6.38452C18.4165 6.68972 18.521 6.98629 18.7136 7.22751C18.9062 7.46874 19.176 7.64091 19.4806 7.7169C21.2259 8.15573 22.8146 9.04912 24.0748 10.3005C24.2951 10.5184 24.5838 10.659 24.8954 10.7001C25.2071 10.7411 25.5239 10.6804 25.7961 10.5274L27.3318 9.66527C27.4929 9.57357 27.6712 9.51371 27.8563 9.48914C28.0414 9.46457 28.2297 9.47579 28.4103 9.52214C28.591 9.56849 28.7603 9.64906 28.9088 9.75921C29.0572 9.86936 29.1817 10.0069 29.2751 10.1639C29.3685 10.321 29.429 10.4944 29.4531 10.6742C29.4772 10.8541 29.4643 11.0367 29.4154 11.2117C29.3664 11.3867 29.2823 11.5506 29.1678 11.6939C29.0534 11.8372 28.9108 11.9571 28.7484 12.0468L27.2128 12.9075C26.9422 13.0597 26.7312 13.2946 26.6126 13.5754C26.4939 13.8562 26.4743 14.1672 26.5568 14.4599V14.4585Z" fill="#6CA4F4"/>
</g>
<defs>
<clipPath id="clip0_2:144">
<rect width="34" height="33" fill="white" transform="translate(0 0.538025)"/>
</clipPath>
</defs>
</svg>
