<svg width="34" height="34" viewBox="0 0 34 34" fill="none" xmlns="http://www.w3.org/2000/svg">
<g clip-path="url(#clip0_109:71)">
<path d="M26.9167 3.53802H25.5V2.16302C25.5 1.79835 25.3507 1.44862 25.0851 1.19075C24.8194 0.932891 24.4591 0.788025 24.0833 0.788025C23.7076 0.788025 23.3473 0.932891 23.0816 1.19075C22.8159 1.44862 22.6667 1.79835 22.6667 2.16302V3.53802H11.3333V2.16302C11.3333 1.79835 11.1841 1.44862 10.9184 1.19075C10.6527 0.932891 10.2924 0.788025 9.91667 0.788025C9.54094 0.788025 9.18061 0.932891 8.91493 1.19075C8.64926 1.44862 8.5 1.79835 8.5 2.16302V3.53802H7.08333C5.20541 3.54021 3.40504 4.26524 2.07714 5.55408C0.749249 6.84292 0.00224946 8.59033 0 10.413L0 26.913C0.00224946 28.7357 0.749249 30.4831 2.07714 31.772C3.40504 33.0608 5.20541 33.7858 7.08333 33.788H26.9167C28.7946 33.7858 30.595 33.0608 31.9229 31.772C33.2508 30.4831 33.9977 28.7357 34 26.913V10.413C33.9977 8.59033 33.2508 6.84292 31.9229 5.55408C30.595 4.26524 28.7946 3.54021 26.9167 3.53802ZM2.83333 10.413C2.83333 9.31901 3.2811 8.2698 4.07813 7.49621C4.87516 6.72262 5.95616 6.28802 7.08333 6.28802H26.9167C28.0438 6.28802 29.1248 6.72262 29.9219 7.49621C30.7189 8.2698 31.1667 9.31901 31.1667 10.413V11.788H2.83333V10.413ZM26.9167 31.038H7.08333C5.95616 31.038 4.87516 30.6034 4.07813 29.8298C3.2811 29.0563 2.83333 28.007 2.83333 26.913V14.538H31.1667V26.913C31.1667 28.007 30.7189 29.0563 29.9219 29.8298C29.1248 30.6034 28.0438 31.038 26.9167 31.038Z" fill="#6CA4F4"/>
<path d="M17 23.4755C18.1736 23.4755 19.125 22.5521 19.125 21.413C19.125 20.2739 18.1736 19.3505 17 19.3505C15.8264 19.3505 14.875 20.2739 14.875 21.413C14.875 22.5521 15.8264 23.4755 17 23.4755Z" fill="#6CA4F4"/>
<path d="M9.91669 23.4755C11.0903 23.4755 12.0417 22.5521 12.0417 21.413C12.0417 20.2739 11.0903 19.3505 9.91669 19.3505C8.74308 19.3505 7.79169 20.2739 7.79169 21.413C7.79169 22.5521 8.74308 23.4755 9.91669 23.4755Z" fill="#6CA4F4"/>
<path d="M24.0833 23.4755C25.2569 23.4755 26.2083 22.5521 26.2083 21.413C26.2083 20.2739 25.2569 19.3505 24.0833 19.3505C22.9097 19.3505 21.9583 20.2739 21.9583 21.413C21.9583 22.5521 22.9097 23.4755 24.0833 23.4755Z" fill="#6CA4F4"/>
</g>
<defs>
<clipPath id="clip0_109:71">
<rect width="34" height="33" fill="white" transform="translate(0 0.788025)"/>
</clipPath>
</defs>
</svg>
