<svg width="34" height="33" viewBox="0 0 34 33" fill="none" xmlns="http://www.w3.org/2000/svg">
<path d="M17 11C15.8792 11 14.7836 11.3226 13.8518 11.9269C12.9199 12.5313 12.1936 13.3902 11.7647 14.3952C11.3358 15.4002 11.2235 16.5061 11.4422 17.573C11.6608 18.6399 12.2005 19.6199 12.993 20.3891C13.7855 21.1583 14.7952 21.6821 15.8945 21.8943C16.9937 22.1065 18.1331 21.9976 19.1685 21.5813C20.204 21.1651 21.089 20.4601 21.7116 19.5556C22.3343 18.6512 22.6666 17.5878 22.6666 16.5C22.6666 15.0413 22.0696 13.6424 21.0069 12.6109C19.9442 11.5795 18.5029 11 17 11ZM17 19.25C16.4396 19.25 15.8918 19.0887 15.4259 18.7865C14.9599 18.4844 14.5968 18.0549 14.3823 17.5524C14.1679 17.0499 14.1118 16.4969 14.2211 15.9635C14.3304 15.4301 14.6003 14.9401 14.9965 14.5555C15.3928 14.1709 15.8976 13.9089 16.4472 13.8028C16.9968 13.6967 17.5665 13.7512 18.0843 13.9593C18.602 14.1675 19.0445 14.5199 19.3558 14.9722C19.6671 15.4244 19.8333 15.9561 19.8333 16.5C19.8333 17.2293 19.5348 17.9288 19.0035 18.4445C18.4721 18.9603 17.7514 19.25 17 19.25Z" fill="#6CA4F4"/>
<path d="M30.1665 19.1125L29.5375 18.7605C29.8207 17.2651 29.8207 15.7321 29.5375 14.2367L30.1665 13.8847C30.6502 13.6139 31.0742 13.2532 31.4143 12.8233C31.7544 12.3934 32.0039 11.9027 32.1486 11.3792C32.2933 10.8558 32.3304 10.3097 32.2577 9.77234C32.1849 9.23495 32.0039 8.71673 31.7248 8.24725C31.4458 7.77777 31.0742 7.36624 30.6313 7.03616C30.1883 6.70607 29.6828 6.46388 29.1434 6.32344C28.6041 6.18299 28.0415 6.14702 27.4878 6.2176C26.9341 6.28817 26.4002 6.4639 25.9165 6.73475L25.2861 7.08813C24.0954 6.10076 22.7271 5.33534 21.25 4.83038V4.125C21.25 3.03098 20.8022 1.98177 20.0052 1.20818C19.2082 0.434597 18.1272 0 17 0C15.8728 0 14.7918 0.434597 13.9948 1.20818C13.1978 1.98177 12.75 3.03098 12.75 4.125V4.83038C11.273 5.33715 9.90512 6.10445 8.71533 7.09363L8.08208 6.7375C7.1052 6.19049 5.94445 6.04254 4.85518 6.32619C3.7659 6.60983 2.83733 7.30185 2.27375 8.25C1.71016 9.19815 1.55773 10.3248 1.84997 11.382C2.14222 12.4392 2.8552 13.3405 3.83208 13.8875L4.46108 14.2395C4.17791 15.7349 4.17791 17.2679 4.46108 18.7633L3.83208 19.1152C2.8552 19.6623 2.14222 20.5635 1.84997 21.6208C1.55773 22.678 1.71016 23.8046 2.27375 24.7528C2.83733 25.7009 3.7659 26.3929 4.85518 26.6766C5.94445 26.9602 7.1052 26.8123 8.08208 26.2652L8.7125 25.9119C9.90358 26.8994 11.2724 27.6648 12.75 28.1696V28.875C12.75 29.969 13.1978 31.0182 13.9948 31.7918C14.7918 32.5654 15.8728 33 17 33C18.1272 33 19.2082 32.5654 20.0052 31.7918C20.8022 31.0182 21.25 29.969 21.25 28.875V28.1696C22.727 27.6628 24.0949 26.8955 25.2847 25.9064L25.9179 26.2611C26.8948 26.8081 28.0556 26.9561 29.1448 26.6724C30.2341 26.3888 31.1627 25.6968 31.7263 24.7486C32.2898 23.8005 32.4423 22.6739 32.15 21.6166C31.8578 20.5594 31.1448 19.6581 30.1679 19.1111L30.1665 19.1125ZM26.5568 13.9205C27.0366 15.6077 27.0366 17.3895 26.5568 19.0767C26.4731 19.3704 26.4922 19.6828 26.6112 19.9647C26.7301 20.2467 26.9422 20.4823 27.2142 20.6346L28.7498 21.4954C29.0754 21.6777 29.313 21.9781 29.4104 22.3305C29.5077 22.6828 29.4569 23.0583 29.269 23.3743C29.0812 23.6903 28.7717 23.9209 28.4086 24.0154C28.0456 24.1099 27.6587 24.0606 27.3332 23.8782L25.7947 23.0148C25.5225 22.8618 25.2057 22.801 24.894 22.8421C24.5824 22.8832 24.2937 23.0237 24.0734 23.2416C22.8125 24.491 21.2239 25.3825 19.4792 25.8197C19.1746 25.8957 18.9048 26.0679 18.7122 26.3091C18.5196 26.5504 18.4151 26.8469 18.4153 27.1521V28.875C18.4153 29.2397 18.266 29.5894 18.0003 29.8473C17.7346 30.1051 17.3743 30.25 16.9986 30.25C16.6229 30.25 16.2625 30.1051 15.9968 29.8473C15.7312 29.5894 15.5819 29.2397 15.5819 28.875V27.1535C15.5821 26.8483 15.4776 26.5517 15.285 26.3105C15.0924 26.0693 14.8225 25.8971 14.518 25.8211C12.7732 25.3821 11.1851 24.4887 9.92517 23.2375C9.70491 23.0196 9.41621 22.879 9.10457 22.838C8.79293 22.7969 8.47607 22.8576 8.20392 23.0106L6.66825 23.8727C6.50707 23.9645 6.3288 24.0243 6.14369 24.0489C5.95859 24.0735 5.7703 24.0622 5.58968 24.0159C5.40905 23.9695 5.23966 23.889 5.09125 23.7788C4.94283 23.6687 4.81834 23.5311 4.72492 23.3741C4.6315 23.217 4.57101 23.0436 4.54693 22.8638C4.52285 22.684 4.53565 22.5013 4.5846 22.3263C4.63355 22.1513 4.71769 21.9874 4.83215 21.8441C4.94662 21.7008 5.08917 21.5809 5.25158 21.4913L6.78725 20.6305C7.05918 20.4782 7.27129 20.2426 7.39027 19.9606C7.50925 19.6786 7.52835 19.3663 7.44458 19.0726C6.96484 17.3854 6.96484 15.6036 7.44458 13.9164C7.52684 13.6233 7.50683 13.3121 7.38765 13.0313C7.26848 12.7504 7.05686 12.5158 6.78583 12.364L5.25017 11.5033C4.9246 11.3209 4.687 11.0205 4.58963 10.6681C4.49226 10.3158 4.5431 9.9403 4.73096 9.62431C4.91882 9.30832 5.22832 9.07771 5.59136 8.9832C5.95441 8.8887 6.34127 8.93804 6.66683 9.12037L8.20533 9.98388C8.47674 10.1372 8.79294 10.1987 9.10425 10.1586C9.41556 10.1185 9.70432 9.97919 9.92517 9.7625C11.1861 8.5131 12.7747 7.62165 14.5194 7.18437C14.8249 7.10815 15.0954 6.93516 15.2881 6.69281C15.4809 6.45047 15.5848 6.15263 15.5833 5.8465V4.125C15.5833 3.76033 15.7326 3.41059 15.9983 3.15273C16.2639 2.89487 16.6243 2.75 17 2.75C17.3757 2.75 17.7361 2.89487 18.0017 3.15273C18.2674 3.41059 18.4167 3.76033 18.4167 4.125V5.8465C18.4165 6.15169 18.521 6.44826 18.7136 6.68949C18.9062 6.93071 19.176 7.10288 19.4806 7.17888C21.2259 7.61771 22.8146 8.51109 24.0748 9.7625C24.2951 9.98039 24.5838 10.121 24.8954 10.162C25.2071 10.2031 25.5239 10.1424 25.7961 9.98938L27.3318 9.12725C27.4929 9.03554 27.6712 8.97568 27.8563 8.95112C28.0414 8.92655 28.2297 8.93776 28.4103 8.98411C28.591 9.03046 28.7603 9.11103 28.9088 9.22118C29.0572 9.33133 29.1817 9.46888 29.2751 9.62592C29.3685 9.78296 29.429 9.95639 29.4531 10.1362C29.4772 10.316 29.4643 10.4987 29.4154 10.6737C29.3664 10.8487 29.2823 11.0126 29.1678 11.1559C29.0534 11.2992 28.9108 11.4191 28.7484 11.5087L27.2128 12.3695C26.9422 12.5217 26.7312 12.7565 26.6126 13.0373C26.4939 13.3181 26.4743 13.6291 26.5568 13.9219V13.9205Z" fill="#6CA4F4"/>
</svg>
